<mxfile host="app.diagrams.net" modified="2023-08-02T03:11:20.448Z" agent="Mozilla/5.0 (Windows NT 10.0; Win64; x64) AppleWebKit/537.36 (KHTML, like Gecko) Chrome/106.0.0.0 Safari/537.36" version="21.6.6" etag="CqldX59mANGcOvz155jK" type="github">
  <diagram name="Page-1" id="5MQgl9gJAhHqWkqDP4w8">
    <mxGraphModel>
      <root>
        <mxCell id="0" />
        <mxCell id="1" parent="0" />
      </root>
    </mxGraphModel>
  </diagram>
</mxfile>
